<?xml version="1.0" encoding="UTF-8" standalone="no"?>
<!-- Created with Inkscape (http://www.inkscape.org/) -->

<svg
   xmlns:dc="http://purl.org/dc/elements/1.1/"
   xmlns:cc="http://creativecommons.org/ns#"
   xmlns:rdf="http://www.w3.org/1999/02/22-rdf-syntax-ns#"
   xmlns:svg="http://www.w3.org/2000/svg"
   xmlns="http://www.w3.org/2000/svg"
   xmlns:sodipodi="http://sodipodi.sourceforge.net/DTD/sodipodi-0.dtd"
   xmlns:inkscape="http://www.inkscape.org/namespaces/inkscape"
   width="52.935837mm"
   height="32.665379mm"
   viewBox="0 0 26.467918 16.33269"
   version="1.1"
   id="svg4566"
   inkscape:version="0.92.2 (unknown)"
   sodipodi:docname="555_timer_pic2.svg">
  <defs
     id="defs4560" />
  <sodipodi:namedview
     id="base"
     pagecolor="#ffffff"
     bordercolor="#666666"
     borderopacity="1.0"
     inkscape:pageopacity="0.0"
     inkscape:pageshadow="2"
     inkscape:zoom="2.8"
     inkscape:cx="73.852886"
     inkscape:cy="65.421778"
     inkscape:document-units="mm"
     inkscape:current-layer="layer1"
     showgrid="false"
     inkscape:window-width="1366"
     inkscape:window-height="712"
     inkscape:window-x="0"
     inkscape:window-y="0"
     inkscape:window-maximized="1"
     fit-margin-top="0"
     fit-margin-left="0"
     fit-margin-right="0"
     fit-margin-bottom="0"
     scale-x="0.5" />
  <metadata
     id="metadata4563">
    <rdf:RDF>
      <cc:Work
         rdf:about="">
        <dc:format>image/svg+xml</dc:format>
        <dc:type
           rdf:resource="http://purl.org/dc/dcmitype/StillImage" />
        <dc:title></dc:title>
      </cc:Work>
    </rdf:RDF>
  </metadata>
  <g
     inkscape:label="Layer 1"
     inkscape:groupmode="layer"
     id="layer1"
     transform="translate(-41.950565,-61.291988)">
    <g
       transform="matrix(0.00254,0,0,0.00254,-48.320687,-10.513322)"
       style="fill:#840000;fill-opacity:0;stroke:#840000;stroke-width:60;stroke-linecap:round;stroke-linejoin:round;stroke-opacity:1"
       id="g642">
      <circle
         cx="40200"
         cy="29000"
         r="200"
         id="circle626" />
      <circle
         cx="41800"
         cy="29000"
         r="200"
         id="circle628" />
      <polyline
         fill="none;"
         points="40400,28900 41600,28300 "
         id="polyline630" />
      <path
         inkscape:connector-curvature="0"
         d="M 40000,29000 H 39000"
         id="path632" />
      <path
         inkscape:connector-curvature="0"
         d="m 42000,29000 h 1000"
         id="path638" />
    </g>
    <g
       transform="matrix(0.00254,0,0,0.00254,-48.320687,-10.513322)"
       style="fill:#840000;fill-opacity:1;stroke:#840000;stroke-width:60;stroke-linecap:round;stroke-linejoin:round;stroke-opacity:1"
       id="g654">
      <rect
         x="36700"
         y="32550"
         width="1600"
         height="100"
         rx="0"
         id="rect646" />
      <rect
         x="36700"
         y="31300"
         width="1600"
         height="100"
         rx="0"
         id="rect648" />
      <rect
         x="36980"
         y="32780"
         width="1020"
         height="200"
         rx="0"
         id="rect650" />
      <rect
         x="36980"
         y="31530"
         width="1020"
         height="200"
         rx="0"
         id="rect652" />
    </g>
    <g
       transform="matrix(0.00254,0,0,0.00254,-48.320687,-10.513322)"
       style="fill:#840000;fill-opacity:0;stroke:#840000;stroke-width:60;stroke-linecap:round;stroke-linejoin:round;stroke-opacity:1"
       id="g668">
      <polyline
         fill="none;"
         points="37500,32600 37500,32500 "
         id="polyline656" />
      <polyline
         fill="none;"
         points="37500,32400 37500,32300 "
         id="polyline658" />
      <polyline
         fill="none;"
         points="37500,32200 37500,32100 "
         id="polyline660" />
      <polyline
         fill="none;"
         points="37500,32000 37500,31900 "
         id="polyline662" />
      <polyline
         fill="none;"
         points="37500,31800 37500,31700 "
         id="polyline664" />
      <polyline
         fill="none;"
         points="37500,31300 37500,31000 "
         id="polyline666" />
    </g>
    <g
       transform="matrix(0.00254,0,0,0.00254,-48.320687,-10.513322)"
       style="fill:#840000;fill-opacity:0;stroke:#840000;stroke-width:100;stroke-linecap:round;stroke-linejoin:round;stroke-opacity:1"
       id="g674">
      <polyline
         fill="none;"
         points="37600,30950 38000,30950 "
         id="polyline670" />
      <polyline
         fill="none;"
         points="37800,30750 37800,31150 "
         id="polyline672" />
    </g>
    <g
       transform="matrix(0.00254,0,0,0.00254,-48.320687,-10.513322)"
       style="fill:#840000;fill-opacity:0;stroke:#840000;stroke-width:60;stroke-linecap:round;stroke-linejoin:round;stroke-opacity:1"
       id="g680">
      <path
         inkscape:connector-curvature="0"
         d="M 37500,31000 V 30000"
         id="path676" />
      <path
         inkscape:connector-curvature="0"
         d="m 37500,33000 v 1000"
         id="path678" />
    </g>
    <g
       transform="matrix(0.00254,0,0,0.00254,-48.320687,-10.513322)"
       style="fill:#840000;fill-opacity:0;stroke:#840000;stroke-width:200;stroke-linecap:round;stroke-linejoin:round;stroke-opacity:1"
       id="g688">
      <polyline
         fill="none;"
         points="43450,32050 45050,32050 "
         id="polyline684" />
      <polyline
         fill="none;"
         points="43450,31450 45050,31450 "
         id="polyline686" />
    </g>
    <g
       transform="matrix(0.00254,0,0,0.00254,-48.320687,-10.513322)"
       style="fill:#840000;fill-opacity:0;stroke:#840000;stroke-width:60;stroke-linecap:round;stroke-linejoin:round;stroke-opacity:1"
       id="g694">
      <path
         inkscape:connector-curvature="0"
         d="M 44250,31350 V 30250"
         id="path690" />
      <path
         inkscape:connector-curvature="0"
         d="m 44250,32150 v 1100"
         id="path692" />
    </g>
    <g
       transform="matrix(0.00254,0,0,0.00254,-48.320687,-10.513322)"
       style="fill:#840000;fill-opacity:0;stroke:#840000;stroke-width:100;stroke-linecap:round;stroke-linejoin:round;stroke-opacity:1"
       id="g700">
      <rect
         x="40000"
         y="33850"
         width="2000"
         height="800"
         rx="0"
         id="rect698" />
    </g>
    <g
       transform="matrix(0.00254,0,0,0.00254,-48.320687,-10.513322)"
       style="fill:#840000;fill-opacity:0;stroke:#840000;stroke-width:60;stroke-linecap:round;stroke-linejoin:round;stroke-opacity:1"
       id="g706">
      <path
         inkscape:connector-curvature="0"
         d="m 42000,34250 h 500"
         id="path702" />
      <path
         inkscape:connector-curvature="0"
         d="m 40000,34250 h -500"
         id="path704" />
    </g>
    <g
       transform="matrix(0.00254,0,0,0.00254,-48.320687,-10.513322)"
       style="fill:#008400;fill-opacity:0;stroke:#008400;stroke-width:60;stroke-linecap:round;stroke-linejoin:round;stroke-opacity:1"
       id="g724">
      <path
         inkscape:connector-curvature="0"
         d="M 37500,30000 V 29000"
         id="path708" />
      <path
         inkscape:connector-curvature="0"
         d="m 37500,29000 h 1500"
         id="path710" />
      <path
         inkscape:connector-curvature="0"
         d="M 44250,30250 V 29000"
         id="path712" />
      <path
         inkscape:connector-curvature="0"
         d="M 44250,29000 H 43000"
         id="path714" />
      <path
         inkscape:connector-curvature="0"
         d="M 44250,34250 V 33250"
         id="path716" />
      <path
         inkscape:connector-curvature="0"
         d="m 37500,34250 v -250"
         id="path718" />
      <path
         inkscape:connector-curvature="0"
         d="M 44250,34250 H 42500"
         id="path720" />
      <path
         inkscape:connector-curvature="0"
         d="M 39500,34250 H 37500"
         id="path722" />
    </g>
    <g
       transform="matrix(0.00254,0,0,0.00254,-48.320687,-10.513322)"
       style="fill:#000000;fill-opacity:0;stroke:#000000;stroke-width:60;stroke-linecap:round;stroke-linejoin:round;stroke-opacity:1"
       id="g736">
      <path
         inkscape:connector-curvature="0"
         d="m 35570,31600 200,600 200,-600"
         id="path726" />
      <path
         inkscape:connector-curvature="0"
         d="m 36130,32170 60,30 h 120 l 50,-30 30,-50 v -30 l -30,-60 -50,-30 h -90 l -60,-30 -30,-50 v -30 l 30,-60 60,-30 h 90 l 50,30"
         id="path728" />
      <path
         inkscape:connector-curvature="0"
         d="m 41200,33500 -200,-280"
         id="path730" />
      <path
         inkscape:connector-curvature="0"
         d="m 40850,33500 v -600 h 230 l 60,30 30,30 30,60 v 80 l -30,60 -30,30 -60,30 h -230"
         id="path732" />
      <path
         inkscape:connector-curvature="0"
         d="m 45930,32000 -30,30 -90,30 h -60 l -80,-30 -60,-50 -30,-60 -30,-120 v -80 l 30,-120 30,-50 60,-60 80,-30 h 60 l 90,30 30,30"
         id="path734" />
    </g>
  </g>
</svg>
