<?xml version="1.0" encoding="UTF-8" standalone="no"?>
<!-- Created with Inkscape (http://www.inkscape.org/) -->

<svg
   xmlns:dc="http://purl.org/dc/elements/1.1/"
   xmlns:cc="http://creativecommons.org/ns#"
   xmlns:rdf="http://www.w3.org/1999/02/22-rdf-syntax-ns#"
   xmlns:svg="http://www.w3.org/2000/svg"
   xmlns="http://www.w3.org/2000/svg"
   xmlns:sodipodi="http://sodipodi.sourceforge.net/DTD/sodipodi-0.dtd"
   xmlns:inkscape="http://www.inkscape.org/namespaces/inkscape"
   width="44.836426mm"
   height="38.486427mm"
   viewBox="0 0 17.93457 15.394572"
   version="1.1"
   id="svg1481"
   inkscape:version="0.92.2 (unknown)"
   sodipodi:docname="555_timer_pic4.svg">
  <defs
     id="defs1475" />
  <sodipodi:namedview
     id="base"
     pagecolor="#ffffff"
     bordercolor="#666666"
     borderopacity="1.0"
     inkscape:pageopacity="0.0"
     inkscape:pageshadow="2"
     inkscape:zoom="0.35"
     inkscape:cx="53.892105"
     inkscape:cy="-189.3458"
     inkscape:document-units="mm"
     inkscape:current-layer="layer1"
     showgrid="false"
     inkscape:window-width="1366"
     inkscape:window-height="712"
     inkscape:window-x="0"
     inkscape:window-y="0"
     inkscape:window-maximized="1"
     fit-margin-top="0"
     fit-margin-left="0"
     fit-margin-right="0"
     fit-margin-bottom="0"
     scale-x="0.4" />
  <metadata
     id="metadata1478">
    <rdf:RDF>
      <cc:Work
         rdf:about="">
        <dc:format>image/svg+xml</dc:format>
        <dc:type
           rdf:resource="http://purl.org/dc/dcmitype/StillImage" />
        <dc:title></dc:title>
      </cc:Work>
    </rdf:RDF>
  </metadata>
  <g
     inkscape:label="Layer 1"
     inkscape:groupmode="layer"
     id="layer1"
     transform="translate(-91.574382,-181.20152)">
    <g
       transform="matrix(0.00254,0,0,0.00254,-23.918333,74.59881)"
       style="fill:#840000;fill-opacity:0;stroke:#840000;stroke-width:60;stroke-linecap:round;stroke-linejoin:round;stroke-opacity:1"
       id="g1427">
      <path
         inkscape:connector-curvature="0"
         d="m 45860,43800 v -400"
         id="path1369" />
      <path
         inkscape:connector-curvature="0"
         d="m 45860,43200 -30,30 30,30 30,-30 -30,-30 v 60"
         id="path1371" />
      <path
         inkscape:connector-curvature="0"
         d="m 46150,43400 v 400"
         id="path1373" />
      <path
         inkscape:connector-curvature="0"
         d="m 46150,43460 30,-30 60,-30 h 80 l 60,30 30,60 v 310"
         id="path1375" />
      <path
         inkscape:connector-curvature="0"
         d="m 46690,43570 h 460"
         id="path1377" />
      <path
         inkscape:connector-curvature="0"
         d="m 46920,43800 v -460"
         id="path1379" />
      <path
         inkscape:connector-curvature="0"
         d="m 45860,45800 v -400"
         id="path1381" />
      <path
         inkscape:connector-curvature="0"
         d="m 45860,45200 -30,30 30,30 30,-30 -30,-30 v 60"
         id="path1383" />
      <path
         inkscape:connector-curvature="0"
         d="m 46150,45400 v 400"
         id="path1385" />
      <path
         inkscape:connector-curvature="0"
         d="m 46150,45460 30,-30 60,-30 h 80 l 60,30 30,60 v 310"
         id="path1387" />
      <path
         inkscape:connector-curvature="0"
         d="m 46690,45570 h 460"
         id="path1389" />
      <path
         inkscape:connector-curvature="0"
         d="m 51020,44800 -60,-30 -30,-30 -30,-50 v -170 l 30,-60 30,-30 60,-30 h 80 l 60,30 30,30 30,60 v 170 l -30,50 -30,30 -60,30 h -80"
         id="path1391" />
      <path
         inkscape:connector-curvature="0"
         d="m 51730,44400 v 400"
         id="path1393" />
      <path
         inkscape:connector-curvature="0"
         d="m 51470,44400 v 320 l 30,50 60,30 h 80 l 60,-30 30,-30"
         id="path1395" />
      <path
         inkscape:connector-curvature="0"
         d="m 51930,44400 h 230"
         id="path1397" />
      <path
         inkscape:connector-curvature="0"
         d="m 52010,44200 v 520 l 30,50 60,30 h 60"
         id="path1399" />
      <path
         inkscape:connector-curvature="0"
         d="m 49440,42200 200,600 200,-600"
         id="path1401" />
      <path
         inkscape:connector-curvature="0"
         d="m 50030,42570 h 460"
         id="path1403" />
      <path
         inkscape:connector-curvature="0"
         d="m 50260,42800 v -460"
         id="path1405" />
      <path
         inkscape:connector-curvature="0"
         d="m 49440,47200 200,600 200,-600"
         id="path1407" />
      <path
         inkscape:connector-curvature="0"
         d="m 50030,47570 h 460"
         id="path1409" />
      <polyline
         fill="none;"
         points="47500,47000 47500,43000 "
         id="polyline1411" />
      <polyline
         fill="none;"
         points="47500,43000 50500,45000 "
         id="polyline1413" />
      <polyline
         fill="none;"
         points="50500,45000 47500,47000 "
         id="polyline1415" />
      <path
         inkscape:connector-curvature="0"
         d="M 47500,46000 H 45500"
         id="path1417" />
      <path
         inkscape:connector-curvature="0"
         d="M 47500,44000 H 45500"
         id="path1419" />
      <path
         inkscape:connector-curvature="0"
         d="m 49000,46000 v 2000"
         id="path1421" />
      <path
         inkscape:connector-curvature="0"
         d="M 49000,44000 V 42000"
         id="path1423" />
      <path
         inkscape:connector-curvature="0"
         d="m 50500,45000 h 2000"
         id="path1425" />
    </g>
  </g>
</svg>
